<svg width="30" height="24" viewBox="0 0 24 24" fill="none" xmlns="http://www.w3.org/2000/svg">
<path d="M20.4362 1.3934L1.34435 20.4853C0.758565 21.0711 0.758565 22.0208 1.34435 22.6066C1.93014 23.1924 2.87989 23.1924 3.46567 22.6066L22.5576 3.51472C23.1433 2.92893 23.1433 1.97919 22.5576 1.3934C21.9718 0.807613 21.022 0.807614 20.4362 1.3934Z" fill="white"/>
<path d="M22.6062 20.4363L3.51427 1.3444C2.92849 0.758615 1.97874 0.758615 1.39295 1.3444C0.807167 1.93019 0.807167 2.87994 1.39295 3.46572L20.4848 22.5576C21.0706 23.1434 22.0204 23.1434 22.6062 22.5576C23.1919 21.9718 23.1919 21.0221 22.6062 20.4363Z" fill="white"/>
</svg>
